<mxfile host="app.diagrams.net" agent="Mozilla/5.0 (Windows NT 10.0; Win64; x64) AppleWebKit/537.36 (KHTML, like Gecko) Chrome/140.0.0.0 Safari/537.36 Edg/140.0.0.0" version="28.2.0">
  <diagram name="Page-1" id="wccZUED9DeQ4yD1VrbN7">
    <mxGraphModel dx="1159" dy="652" grid="1" gridSize="10" guides="1" tooltips="1" connect="1" arrows="1" fold="1" page="1" pageScale="1" pageWidth="850" pageHeight="1100" math="0" shadow="0">
      <root>
        <mxCell id="0" />
        <mxCell id="1" parent="0" />
        <mxCell id="2_1nliwuHRBchDe2rHvz-10" value="Student&amp;nbsp; Information System&lt;div&gt;&lt;br&gt;&lt;/div&gt;" style="rounded=0;whiteSpace=wrap;html=1;" parent="1" vertex="1">
          <mxGeometry x="100" y="40" width="670" height="60" as="geometry" />
        </mxCell>
        <mxCell id="2_1nliwuHRBchDe2rHvz-16" value="" style="edgeStyle=orthogonalEdgeStyle;rounded=0;orthogonalLoop=1;jettySize=auto;html=1;" parent="1" source="2_1nliwuHRBchDe2rHvz-12" target="2_1nliwuHRBchDe2rHvz-15" edge="1">
          <mxGeometry relative="1" as="geometry" />
        </mxCell>
        <mxCell id="2_1nliwuHRBchDe2rHvz-18" value="" style="edgeStyle=orthogonalEdgeStyle;rounded=0;orthogonalLoop=1;jettySize=auto;html=1;" parent="1" source="2_1nliwuHRBchDe2rHvz-12" target="2_1nliwuHRBchDe2rHvz-17" edge="1">
          <mxGeometry relative="1" as="geometry" />
        </mxCell>
        <mxCell id="2_1nliwuHRBchDe2rHvz-12" value="Admin" style="rounded=0;whiteSpace=wrap;html=1;" parent="1" vertex="1">
          <mxGeometry x="40" y="150" width="120" height="60" as="geometry" />
        </mxCell>
        <mxCell id="2_1nliwuHRBchDe2rHvz-22" value="" style="edgeStyle=orthogonalEdgeStyle;rounded=0;orthogonalLoop=1;jettySize=auto;html=1;" parent="1" source="2_1nliwuHRBchDe2rHvz-15" target="2_1nliwuHRBchDe2rHvz-21" edge="1">
          <mxGeometry relative="1" as="geometry" />
        </mxCell>
        <mxCell id="2_1nliwuHRBchDe2rHvz-15" value="Login to System" style="ellipse;whiteSpace=wrap;html=1;rounded=0;" parent="1" vertex="1">
          <mxGeometry x="260" y="140" width="80" height="80" as="geometry" />
        </mxCell>
        <mxCell id="2_1nliwuHRBchDe2rHvz-20" value="" style="edgeStyle=orthogonalEdgeStyle;rounded=0;orthogonalLoop=1;jettySize=auto;html=1;" parent="1" source="2_1nliwuHRBchDe2rHvz-17" target="2_1nliwuHRBchDe2rHvz-19" edge="1">
          <mxGeometry relative="1" as="geometry" />
        </mxCell>
        <mxCell id="2_1nliwuHRBchDe2rHvz-17" value="Forgot&lt;div&gt;password&lt;/div&gt;" style="ellipse;whiteSpace=wrap;html=1;rounded=0;" parent="1" vertex="1">
          <mxGeometry x="60" y="280" width="80" height="80" as="geometry" />
        </mxCell>
        <mxCell id="2_1nliwuHRBchDe2rHvz-19" value="Send Email&lt;div&gt;to User&lt;/div&gt;" style="ellipse;whiteSpace=wrap;html=1;rounded=0;" parent="1" vertex="1">
          <mxGeometry x="60" y="440" width="80" height="80" as="geometry" />
        </mxCell>
        <mxCell id="2_1nliwuHRBchDe2rHvz-21" value="Check&amp;nbsp;&lt;div&gt;Credentials&lt;/div&gt;" style="ellipse;whiteSpace=wrap;html=1;rounded=0;" parent="1" vertex="1">
          <mxGeometry x="260" y="300" width="80" height="80" as="geometry" />
        </mxCell>
        <mxCell id="2_1nliwuHRBchDe2rHvz-28" value="" style="edgeStyle=orthogonalEdgeStyle;rounded=0;orthogonalLoop=1;jettySize=auto;html=1;" parent="1" source="2_1nliwuHRBchDe2rHvz-26" target="2_1nliwuHRBchDe2rHvz-27" edge="1">
          <mxGeometry relative="1" as="geometry" />
        </mxCell>
        <mxCell id="2_1nliwuHRBchDe2rHvz-26" value="Check&lt;div&gt;Roles of&amp;nbsp;&lt;/div&gt;&lt;div&gt;Access&lt;/div&gt;" style="ellipse;whiteSpace=wrap;html=1;aspect=fixed;" parent="1" vertex="1">
          <mxGeometry x="470" y="150" width="80" height="80" as="geometry" />
        </mxCell>
        <mxCell id="2_1nliwuHRBchDe2rHvz-27" value="Manage&lt;div&gt;Modules&lt;/div&gt;" style="ellipse;whiteSpace=wrap;html=1;" parent="1" vertex="1">
          <mxGeometry x="470" y="310" width="80" height="80" as="geometry" />
        </mxCell>
        <mxCell id="2_1nliwuHRBchDe2rHvz-29" value="Manage Timetable&lt;div&gt;Details&lt;/div&gt;" style="rounded=0;whiteSpace=wrap;html=1;" parent="1" vertex="1">
          <mxGeometry x="690" y="160" width="120" height="60" as="geometry" />
        </mxCell>
        <mxCell id="2_1nliwuHRBchDe2rHvz-33" value="Manage Attendence&lt;div&gt;Details&lt;/div&gt;" style="rounded=0;whiteSpace=wrap;html=1;" parent="1" vertex="1">
          <mxGeometry x="690" y="260" width="120" height="60" as="geometry" />
        </mxCell>
        <mxCell id="2_1nliwuHRBchDe2rHvz-34" value="Manage Class Details" style="rounded=0;whiteSpace=wrap;html=1;" parent="1" vertex="1">
          <mxGeometry x="690" y="360" width="120" height="60" as="geometry" />
        </mxCell>
        <mxCell id="2_1nliwuHRBchDe2rHvz-35" value="Manage Students Details" style="rounded=0;whiteSpace=wrap;html=1;" parent="1" vertex="1">
          <mxGeometry x="690" y="460" width="120" height="60" as="geometry" />
        </mxCell>
        <mxCell id="2_1nliwuHRBchDe2rHvz-36" value="Manage Fees Detaills" style="rounded=0;whiteSpace=wrap;html=1;" parent="1" vertex="1">
          <mxGeometry x="690" y="550" width="120" height="60" as="geometry" />
        </mxCell>
        <mxCell id="2_1nliwuHRBchDe2rHvz-38" value="Manage Teachers&lt;div&gt;Profiles&lt;/div&gt;" style="rounded=0;whiteSpace=wrap;html=1;" parent="1" vertex="1">
          <mxGeometry x="690" y="640" width="120" height="60" as="geometry" />
        </mxCell>
        <mxCell id="2_1nliwuHRBchDe2rHvz-39" value="Manage Report" style="rounded=0;whiteSpace=wrap;html=1;" parent="1" vertex="1">
          <mxGeometry x="690" y="730" width="120" height="60" as="geometry" />
        </mxCell>
        <mxCell id="2_1nliwuHRBchDe2rHvz-40" value="Manage System Admins" style="rounded=0;whiteSpace=wrap;html=1;" parent="1" vertex="1">
          <mxGeometry x="30" y="730" width="120" height="60" as="geometry" />
        </mxCell>
        <mxCell id="2_1nliwuHRBchDe2rHvz-41" value="Manage Roles of user" style="rounded=0;whiteSpace=wrap;html=1;" parent="1" vertex="1">
          <mxGeometry x="270" y="730" width="120" height="60" as="geometry" />
        </mxCell>
        <mxCell id="2_1nliwuHRBchDe2rHvz-42" value="Manage User&lt;div&gt;Permission&lt;/div&gt;" style="rounded=0;whiteSpace=wrap;html=1;" parent="1" vertex="1">
          <mxGeometry x="500" y="730" width="120" height="60" as="geometry" />
        </mxCell>
        <mxCell id="2_1nliwuHRBchDe2rHvz-47" value="" style="endArrow=classic;html=1;rounded=0;" parent="1" source="2_1nliwuHRBchDe2rHvz-27" edge="1">
          <mxGeometry width="50" height="50" relative="1" as="geometry">
            <mxPoint x="630" y="250" as="sourcePoint" />
            <mxPoint x="680" y="200" as="targetPoint" />
          </mxGeometry>
        </mxCell>
        <mxCell id="2_1nliwuHRBchDe2rHvz-53" value="" style="endArrow=classic;html=1;rounded=0;exitX=1;exitY=0.375;exitDx=0;exitDy=0;exitPerimeter=0;" parent="1" source="2_1nliwuHRBchDe2rHvz-27" edge="1">
          <mxGeometry width="50" height="50" relative="1" as="geometry">
            <mxPoint x="570" y="340" as="sourcePoint" />
            <mxPoint x="690" y="270" as="targetPoint" />
          </mxGeometry>
        </mxCell>
        <mxCell id="2_1nliwuHRBchDe2rHvz-54" value="" style="endArrow=classic;html=1;rounded=0;entryX=0;entryY=0.75;entryDx=0;entryDy=0;" parent="1" source="2_1nliwuHRBchDe2rHvz-27" target="2_1nliwuHRBchDe2rHvz-34" edge="1">
          <mxGeometry width="50" height="50" relative="1" as="geometry">
            <mxPoint x="380" y="510" as="sourcePoint" />
            <mxPoint x="430" y="460" as="targetPoint" />
          </mxGeometry>
        </mxCell>
        <mxCell id="WHJ0crZxjQOEq42ITp8g-2" value="" style="endArrow=classic;html=1;rounded=0;exitX=1;exitY=1;exitDx=0;exitDy=0;" parent="1" source="2_1nliwuHRBchDe2rHvz-27" edge="1">
          <mxGeometry width="50" height="50" relative="1" as="geometry">
            <mxPoint x="630" y="530" as="sourcePoint" />
            <mxPoint x="680" y="480" as="targetPoint" />
          </mxGeometry>
        </mxCell>
        <mxCell id="WHJ0crZxjQOEq42ITp8g-4" value="" style="endArrow=classic;html=1;rounded=0;exitX=0.743;exitY=0.972;exitDx=0;exitDy=0;exitPerimeter=0;" parent="1" source="2_1nliwuHRBchDe2rHvz-27" edge="1">
          <mxGeometry width="50" height="50" relative="1" as="geometry">
            <mxPoint x="640" y="620" as="sourcePoint" />
            <mxPoint x="690" y="570" as="targetPoint" />
          </mxGeometry>
        </mxCell>
        <mxCell id="WHJ0crZxjQOEq42ITp8g-5" value="" style="endArrow=classic;html=1;rounded=0;exitX=0.621;exitY=1.017;exitDx=0;exitDy=0;exitPerimeter=0;" parent="1" source="2_1nliwuHRBchDe2rHvz-27" edge="1">
          <mxGeometry width="50" height="50" relative="1" as="geometry">
            <mxPoint x="640" y="700" as="sourcePoint" />
            <mxPoint x="690" y="650" as="targetPoint" />
          </mxGeometry>
        </mxCell>
        <mxCell id="WHJ0crZxjQOEq42ITp8g-7" value="" style="endArrow=classic;html=1;rounded=0;exitX=0.5;exitY=1;exitDx=0;exitDy=0;" parent="1" source="2_1nliwuHRBchDe2rHvz-27" edge="1">
          <mxGeometry width="50" height="50" relative="1" as="geometry">
            <mxPoint x="490" y="390" as="sourcePoint" />
            <mxPoint x="680" y="750" as="targetPoint" />
          </mxGeometry>
        </mxCell>
        <mxCell id="WHJ0crZxjQOEq42ITp8g-8" value="" style="endArrow=classic;html=1;rounded=0;exitX=0.399;exitY=0.983;exitDx=0;exitDy=0;exitPerimeter=0;" parent="1" source="2_1nliwuHRBchDe2rHvz-27" edge="1">
          <mxGeometry width="50" height="50" relative="1" as="geometry">
            <mxPoint x="490" y="400" as="sourcePoint" />
            <mxPoint x="530" y="720" as="targetPoint" />
          </mxGeometry>
        </mxCell>
        <mxCell id="WHJ0crZxjQOEq42ITp8g-9" value="" style="endArrow=classic;html=1;rounded=0;entryX=0.606;entryY=0.074;entryDx=0;entryDy=0;entryPerimeter=0;exitX=0.299;exitY=0.95;exitDx=0;exitDy=0;exitPerimeter=0;" parent="1" source="2_1nliwuHRBchDe2rHvz-27" edge="1">
          <mxGeometry width="50" height="50" relative="1" as="geometry">
            <mxPoint x="510" y="370" as="sourcePoint" />
            <mxPoint x="351.52000000000004" y="725.08" as="targetPoint" />
          </mxGeometry>
        </mxCell>
        <mxCell id="WHJ0crZxjQOEq42ITp8g-10" value="" style="endArrow=classic;html=1;rounded=0;" parent="1" source="2_1nliwuHRBchDe2rHvz-27" edge="1">
          <mxGeometry width="50" height="50" relative="1" as="geometry">
            <mxPoint x="410" y="570" as="sourcePoint" />
            <mxPoint x="140" y="720" as="targetPoint" />
          </mxGeometry>
        </mxCell>
      </root>
    </mxGraphModel>
  </diagram>
</mxfile>
